<svg width="129" height="80" viewBox="0 0 129 80" fill="none" xmlns="http://www.w3.org/2000/svg">
<path d="M104.577 5.1189L101.058 0C101.57 1.27972 99.9917 3.94582 99.1386 5.1189C97.6029 5.88673 96.1525 7.5717 95.6193 8.3182C93.5718 12.1574 94.7662 16.3165 95.6193 17.9161C89.2207 14.5889 82.9287 15.4633 80.5826 16.3165C73.1602 19.6438 69.5983 29.0071 68.7451 33.2728C68.2332 36.0882 65.3325 37.8585 63.9462 38.3917H15.6366C12.3093 38.3917 11.9041 40.7379 12.1173 41.911C12.1173 43.7026 14.4635 44.3638 15.6366 44.4704H101.058C103.362 44.4704 109.649 44.3638 111.249 43.5106C118.927 39.6714 115.775 29.7536 114.175 25.5945C112.896 22.2672 113.642 20.5822 114.175 20.1557C118.015 15.2927 116.841 10.2378 115.775 8.3182C114.751 6.52659 114.282 2.87938 114.175 1.27972L110.976 5.1189C108.673 4.35106 105.75 4.79896 104.577 5.1189Z" fill="#FDF7E9"/>
<path d="M1.8428 78.9079C1.54249 78.9079 1.29679 78.785 1.10568 78.5393C0.941877 78.2663 0.859974 77.9387 0.859974 77.5565L0.941877 70.6767C1.02378 67.346 1.06473 64.7661 1.06473 62.9369C1.06473 56.5758 0.70982 51.7027 0 48.3174C0.409512 47.6894 0.928226 47.3755 1.55614 47.3755C2.56627 47.3755 3.48085 47.6075 4.29987 48.0717C5.1462 48.5085 5.84237 49.1091 6.38838 49.8735C7.45311 51.457 7.98548 53.2315 7.98548 55.1972C7.98548 57.2447 7.54866 59.0739 6.67504 60.6846C5.80141 62.2954 4.53193 63.5512 2.86658 64.4521L2.94848 68.5882L3.03039 70.7586C3.05769 71.2227 3.07134 71.8916 3.07134 72.7652C3.15324 74.5944 3.19419 76.0823 3.19419 77.2289C3.19419 77.7476 3.08499 78.1571 2.86658 78.4574C2.64818 78.7577 2.30692 78.9079 1.8428 78.9079ZM2.78468 62.4865C3.84941 61.4763 4.62748 60.4253 5.1189 59.3332C5.63761 58.2139 5.89697 56.9581 5.89697 55.5657V55.5248C5.89697 54.8969 5.82871 54.1051 5.69221 53.1496C5.61031 52.822 5.46015 52.4944 5.24175 52.1668C5.02334 51.8392 4.90049 51.6481 4.87319 51.5935C4.68208 51.3204 4.17702 50.8973 3.358 50.324L2.29327 49.5459C2.29327 50.9382 2.37517 53.095 2.53897 56.0162L2.78468 62.4865Z" fill="#FDF7E9"/>
<path d="M16.6706 79.3174C16.0154 79.3174 15.4285 79.1672 14.9097 78.8669C14.391 78.5939 13.9679 78.1844 13.6403 77.6384C12.985 76.4918 12.5619 75.195 12.3708 73.748C12.1797 72.4922 12.0841 70.9907 12.0841 69.2434C12.0022 66.2949 11.9613 62.6912 11.9613 58.4323L11.9203 55.2791C11.893 55.1153 11.8794 54.8423 11.8794 54.46C11.8248 53.4226 11.7975 52.7947 11.7975 52.5763C12.0432 52.003 12.3298 51.7163 12.6574 51.7163C12.985 51.7163 13.2717 51.962 13.5174 52.4534C13.7904 52.9448 13.9269 53.4772 13.9269 54.0505V65.1892C13.9269 66.2813 14.0225 67.7282 14.2136 69.5301C14.4047 71.7687 14.5002 73.2157 14.5002 73.8709C14.5002 75.8911 15.3602 76.9013 17.0802 76.9013C19.0458 76.9013 20.0286 69.5574 20.0286 54.8696V52.2077C20.0013 52.1258 19.9877 52.0166 19.9877 51.8801C19.9877 51.5525 20.0559 51.3204 20.1924 51.1839C20.3562 51.0201 20.6566 50.9382 21.0934 50.9382C21.4483 50.9382 21.7213 51.0474 21.9124 51.2658C22.1308 51.457 22.2673 51.689 22.3219 51.962C22.3492 52.1258 22.3629 52.4398 22.3629 52.9039C22.3629 53.3407 22.3219 54.0369 22.24 54.9924C22.1308 55.7841 22.0762 56.4666 22.0762 57.04C22.0762 57.6679 22.0489 58.2275 21.9943 58.719L21.9124 60.4389V60.7665C21.9397 60.8757 21.9533 60.9986 21.9533 61.1351C21.9533 73.2566 20.1924 79.3174 16.6706 79.3174Z" fill="#FDF7E9"/>
<path d="M34.2521 79.3993C33.6515 79.3993 33.1055 78.7441 32.6141 77.4336C32.0408 76.014 31.6176 74.5534 31.3446 73.0519L31.0579 71.6595C30.2662 67.7555 29.7612 65.5305 29.5427 64.9845H29.0513C29.0513 65.7762 29.0377 66.4997 29.0104 67.1549V69.4072C29.0104 73.0655 29.2697 75.9184 29.7885 77.966L29.338 79.0717H28.1914L27.659 78.4574L27.6999 75.7137C27.6999 73.2566 27.5771 69.5301 27.3314 64.534C27.113 59.2104 27.0038 55.4838 27.0038 53.3544C27.0038 52.0439 27.4542 51.3887 28.3552 51.3887C29.8294 51.3887 31.0306 51.7709 31.9589 52.5353C32.9144 53.2998 33.3922 54.3645 33.3922 55.7295V58.5961C33.3922 59.0056 33.3239 59.4834 33.1874 60.0294C33.0509 60.5481 32.9007 60.9713 32.7369 61.2989L31.9589 62.7731L31.3036 64.0017L31.5084 64.9845L32.0817 67.892C32.4639 69.9942 32.8325 71.7005 33.1874 73.0109C33.5423 74.3214 33.9791 75.5089 34.4978 76.5737L34.7435 77.0651C35.0165 77.6111 35.1531 78.0479 35.1531 78.3755C35.1531 78.6485 35.0712 78.8806 34.9073 79.0717C34.7435 79.2901 34.5251 79.3993 34.2521 79.3993ZM29.2151 62.9779C29.8158 62.6776 30.3208 61.8585 30.7303 60.5208C31.1671 59.1558 31.3855 57.8999 31.3855 56.7533C31.3855 55.8797 31.2763 55.0607 31.0579 54.2962C30.9214 53.8594 30.6894 53.5318 30.3618 53.3134C30.0615 53.0677 29.6792 52.9448 29.2151 52.9448L29.1332 53.1496L29.0513 53.5182L29.1332 58.3504C29.1878 59.77 29.2151 61.3125 29.2151 62.9779Z" fill="#FDF7E9"/>
<path d="M40.023 79.0717C39.6135 79.0717 39.1221 78.8669 38.5488 78.4574C38.7672 76.1915 38.9447 72.7106 39.0812 68.0149C39.2177 63.128 39.3132 60.1932 39.3678 59.2104V58.2275C39.477 55.5521 39.5316 53.6956 39.5316 52.6582C39.5316 52.276 39.6818 51.9757 39.9821 51.7573C40.3097 51.5389 40.6783 51.4297 41.0878 51.4297C42.0433 51.4297 43.0671 51.5116 44.1591 51.6754C44.8689 51.7846 45.4286 51.962 45.8381 52.2077C46.2749 52.4534 46.4933 52.7537 46.4933 53.1087C46.4933 53.8731 45.7972 54.2553 44.4048 54.2553C43.8861 53.9823 43.1763 53.8458 42.2754 53.8458H41.7839V54.3372C41.7839 55.4019 41.7293 56.7533 41.6201 58.3914C41.4836 59.9202 41.4154 61.2989 41.4154 62.5274V63.6331H42.1525C43.4902 63.6331 44.1591 63.988 44.1591 64.6978C44.1591 65.0527 44.009 65.3394 43.7086 65.5578C43.4356 65.7762 43.0944 65.8854 42.6849 65.8854C42.0296 65.8854 41.4973 65.8172 41.0878 65.6807V77.2698C41.0878 78.4711 40.7329 79.0717 40.023 79.0717Z" fill="#FDF7E9"/>
<path d="M51.1646 79.2355C50.8097 79.2355 50.4821 79.1126 50.1818 78.8669C49.9088 78.6212 49.7586 78.3209 49.7313 77.966V76.0823C49.704 75.8365 49.6904 75.5499 49.6904 75.2223C49.6904 74.649 49.6494 73.7753 49.5675 72.6014L49.4856 69.9805C49.4856 68.6428 49.5266 66.6498 49.6085 64.0017C49.7177 61.6265 49.7723 59.6335 49.7723 58.0228C49.7723 57.6406 49.7313 57.0673 49.6494 56.3028C49.5675 55.5111 49.5266 54.9378 49.5266 54.5829C49.5266 52.6445 50.0999 51.6754 51.2465 51.6754C52.1475 51.6754 53.1849 51.8528 54.3588 52.2077C55.5601 52.5626 56.1607 52.9858 56.1607 53.4772C56.1607 53.7502 56.0378 54.0096 55.7921 54.2553C55.5737 54.4737 55.3007 54.6511 54.9731 54.7876C53.8265 54.3781 52.789 54.1051 51.8608 53.9686C51.8881 54.3781 51.9018 54.9651 51.9018 55.7295C51.9018 56.8216 51.8881 57.8044 51.8608 58.678C51.7789 59.9884 51.738 60.9713 51.738 61.6265L51.8608 62.2817L52.516 62.2408C52.7344 62.2135 53.0074 62.1998 53.335 62.1998C54.6455 62.1998 55.3007 62.582 55.3007 63.3464C55.3007 63.6468 55.1778 63.9061 54.9321 64.1245C54.6864 64.3156 54.3725 64.4112 53.9903 64.4112C53.4989 64.4112 53.1166 64.3839 52.8436 64.3293H51.8199C51.8745 65.0391 51.9018 66.0765 51.9018 67.4416C51.9018 68.8066 51.8881 70.0351 51.8608 71.1272C51.7789 72.7925 51.738 74.0347 51.738 74.8537C51.738 76.3826 51.7653 77.147 51.8199 77.147L53.1712 77.106C53.6354 77.0787 54.195 77.0651 54.8502 77.0651C55.8877 77.0651 56.4064 77.3927 56.4064 78.0479C56.4064 78.4301 56.2289 78.7168 55.874 78.9079C55.5464 79.1263 55.1369 79.2355 54.6455 79.2355H51.1646Z" fill="#FDF7E9"/>
<path d="M66.4058 79.2764C65.8052 79.2764 65.1636 79.1809 64.4811 78.9898C63.8259 78.826 63.3208 78.6349 62.9659 78.4165C61.1368 77.2425 60.2222 74.0347 60.2222 68.7929V65.435C60.2222 64.3429 60.2359 63.3737 60.2632 62.5274C60.2905 61.6538 60.3451 60.7119 60.427 59.7018C60.5089 58.6371 60.6317 57.7771 60.7955 57.1219C60.9593 56.4393 61.2323 55.6749 61.6145 54.8286C61.9422 54.0369 62.338 53.4226 62.8021 52.9858C63.2935 52.549 63.9215 52.1804 64.6859 51.8801C65.3684 51.5798 66.2147 51.4297 67.2248 51.4297C67.6344 51.4297 67.9483 51.5252 68.1667 51.7163C68.3851 51.9074 68.4943 52.1531 68.4943 52.4534C68.4943 52.7264 68.3988 52.9721 68.2077 53.1906C68.0439 53.409 67.8391 53.5318 67.5934 53.5591H65.6687C65.1227 53.5591 64.6449 53.9004 64.2354 54.5829C63.8259 55.2654 63.5392 56.1527 63.3754 57.2447C63.0205 59.265 62.8431 60.903 62.8431 62.1589V62.3636L62.7612 66.2949C62.7066 67.4689 62.6793 68.7929 62.6793 70.2672C62.6793 71.3046 62.7202 72.1509 62.8021 72.8062C62.9386 73.789 63.1707 74.608 63.4983 75.2632C63.8259 76.0004 64.3856 76.5327 65.1773 76.8603C65.5868 77.0241 66.0373 77.106 66.5287 77.106C66.829 77.106 67.1293 76.9968 67.4296 76.7784C67.7845 76.7784 68.0712 76.8603 68.2896 77.0241C68.5353 77.1606 68.6581 77.379 68.6581 77.6793C68.6581 78.7441 67.9074 79.2764 66.4058 79.2764Z" fill="#FDF7E9"/>
<path d="M74.6492 78.0479L74.6082 76.4508C74.5809 75.9867 74.5673 75.468 74.5673 74.8947L74.6082 73.5023C74.5263 73.202 74.3216 70.2126 73.9939 64.534C73.6663 58.8555 73.4752 55.2108 73.4206 53.6001C71.8372 53.5455 70.8271 53.3817 70.3902 53.1087C70.0899 52.8902 69.9398 52.6445 69.9398 52.3715C69.9398 52.1531 70.0763 51.962 70.3493 51.7982C70.6496 51.6071 70.9499 51.5116 71.2502 51.5116C72.0146 51.5116 72.9429 51.5662 74.0349 51.6754C75.0723 51.8119 76.0006 51.8801 76.8196 51.8801H77.4748C78.3211 51.8801 78.7443 52.2077 78.7443 52.8629C78.7443 53.1906 78.6078 53.4636 78.3348 53.682C78.0618 53.8731 77.7478 53.9686 77.3929 53.9686C77.1472 53.9686 76.7923 53.9277 76.3282 53.8458L75.5091 53.682L75.4272 54.0915C75.4272 56.5212 75.6593 60.398 76.1234 65.7216C76.5602 70.7177 76.7786 74.5944 76.7786 77.3517C76.7786 77.6793 76.6285 77.966 76.3282 78.2117C76.0552 78.4574 75.7412 78.5803 75.3863 78.5803L74.6492 78.0479Z" fill="#FDF7E9"/>
<path d="M84.185 78.9079C83.8847 78.9079 83.639 78.785 83.4479 78.5393C83.2841 78.2663 83.2022 77.9387 83.2022 77.5565L83.2841 70.6767C83.366 67.346 83.407 64.7661 83.407 62.9369C83.407 56.5758 83.052 51.7027 82.3422 48.3174C82.7517 47.6894 83.2705 47.3755 83.8984 47.3755C84.9085 47.3755 85.8231 47.6075 86.6421 48.0717C87.4884 48.5085 88.1846 49.1091 88.7306 49.8735C89.7953 51.457 90.3277 53.2315 90.3277 55.1972C90.3277 57.2447 89.8909 59.0739 89.0173 60.6846C88.1436 62.2954 86.8742 63.5512 85.2088 64.4521L85.2907 68.5882L85.3726 70.7586C85.3999 71.2227 85.4136 71.8916 85.4136 72.7652C85.4955 74.5944 85.5364 76.0823 85.5364 77.2289C85.5364 77.7476 85.4272 78.1571 85.2088 78.4574C84.9904 78.7577 84.6491 78.9079 84.185 78.9079ZM85.1269 62.4865C86.1916 61.4763 86.9697 60.4253 87.4611 59.3332C87.9798 58.2139 88.2392 56.9581 88.2392 55.5657V55.5248C88.2392 54.8969 88.1709 54.1051 88.0344 53.1496C87.9525 52.822 87.8024 52.4944 87.584 52.1668C87.3656 51.8392 87.2427 51.6481 87.2154 51.5935C87.0243 51.3204 86.5192 50.8973 85.7002 50.324L84.6355 49.5459C84.6355 50.9382 84.7174 53.095 84.8812 56.0162L85.1269 62.4865Z" fill="#FDF7E9"/>
<path d="M101.459 79.0717C100.831 79.0717 100.367 78.9761 100.066 78.785C99.7661 78.5939 99.6159 78.239 99.6159 77.7203C99.6159 76.9013 99.4794 75.5089 99.2064 73.5433L99.0426 72.6833L94.9885 72.069C94.8247 72.697 94.5926 73.9664 94.2923 75.8775C94.1285 77.2152 93.8691 78.1025 93.5142 78.5393C93.3231 78.785 93.0501 78.9079 92.6952 78.9079C92.3676 78.9079 92.0673 78.8123 91.7943 78.6212C91.5213 78.4028 91.3848 78.1435 91.3848 77.8432L91.4667 77.6384L91.5076 77.4746C93.3095 70.4583 94.6745 63.5375 95.6027 56.7124C95.6027 56.6032 95.6164 56.4257 95.6437 56.18C95.671 55.907 95.6983 55.5248 95.7256 55.0334C95.8075 54.0232 95.8894 53.2179 95.9713 52.6172C96.0805 52.0166 96.2443 51.5662 96.4627 51.2658H97.855C98.2373 51.2658 98.5649 51.3614 98.8379 51.5525C99.1109 51.7163 99.2474 51.962 99.2474 52.2896C99.2474 54.3645 99.534 57.4495 100.107 61.5446C100.653 65.7489 100.926 68.6974 100.926 70.39C100.926 70.5538 100.995 70.977 101.131 71.6595C101.268 72.2874 101.336 72.697 101.336 72.8881C101.336 73.0792 101.472 73.8982 101.745 75.3451C101.991 76.6556 102.114 77.5019 102.114 77.8841V77.9251C102.114 78.5257 101.896 78.9079 101.459 79.0717ZM98.756 71.2091C98.6741 70.7996 98.6331 70.2945 98.6331 69.6939C98.6331 67.2368 98.4147 64.0972 97.9779 60.2751L97.5684 56.0162C96.3944 62.4319 95.5891 67.2778 95.1523 70.5538C95.5618 70.8269 96.763 71.0453 98.756 71.2091Z" fill="#FDF7E9"/>
<path d="M108.618 79.5631C108.072 79.5631 107.594 78.7441 107.185 77.106C106.83 75.6591 106.53 73.8709 106.284 71.7414C106.066 69.5847 105.833 66.8682 105.588 63.5921C105.451 61.4627 105.26 59.1831 105.014 56.7533C104.823 54.733 104.591 53.4363 104.318 52.8629C104.564 52.3715 104.96 52.1258 105.506 52.1258C106.379 52.1258 106.816 53.0267 106.816 54.8286C106.816 56.9581 107.103 60.0703 107.676 64.1655C108.25 68.2333 108.577 71.1954 108.659 73.0519L108.864 71.6595C109.137 69.8304 109.369 68.1104 109.56 66.4997C109.778 64.8616 109.956 63.1007 110.092 61.217C110.284 59.1148 110.379 57.04 110.379 54.9924L111.485 54.501C111.84 54.501 112.126 54.5965 112.345 54.7876C112.59 54.9515 112.713 55.1972 112.713 55.5248V55.8524C113.15 57.3812 113.505 59.0602 113.778 60.8894C114.078 62.6912 114.338 64.8207 114.556 67.2778C114.72 69.1615 114.911 70.9224 115.129 72.5605C115.648 68.9021 115.907 64.3975 115.907 59.0466C115.907 58.2002 116.017 57.1628 116.235 55.9343C116.426 54.6784 116.522 53.6547 116.522 52.8629C116.44 52.6172 116.399 52.3852 116.399 52.1668C116.399 51.5116 116.808 51.1839 117.627 51.1839C117.955 51.1839 118.214 51.2658 118.405 51.4297C118.597 51.5935 118.692 51.8255 118.692 52.1258V52.7401C118.692 53.1496 118.651 53.5045 118.569 53.8048V54.0096C118.214 55.1016 118.037 56.3574 118.037 57.7771V60.7665C118.037 62.4865 117.832 65.0527 117.423 68.4653C116.986 71.796 116.767 74.2804 116.767 75.9184V76.6556C116.767 77.2835 116.699 77.8159 116.563 78.2527C116.399 78.7987 116.003 79.0717 115.375 79.0717C114.938 79.0717 114.597 78.9352 114.351 78.6622C114.133 78.3619 114.024 77.9933 114.024 77.5565C114.024 75.3451 113.792 72.4786 113.328 68.9568C113.082 67.3733 112.822 65.7762 112.549 64.1655L111.894 59.8656C111.785 60.6573 111.73 61.4354 111.73 62.1998C111.73 63.7287 111.621 65.7489 111.403 68.2606C111.184 70.7723 110.843 73.2157 110.379 75.5908C109.86 78.239 109.273 79.5631 108.618 79.5631Z" fill="#FDF7E9"/>
<path d="M123.922 79.2764C123.431 79.1945 123.007 79.0171 122.653 78.7441C122.325 78.4711 122.134 78.1162 122.079 77.6793L122.53 76.9832C122.694 76.9832 122.953 77.0378 123.308 77.147C123.717 77.2289 124.031 77.2698 124.25 77.2698C124.741 77.2698 125.178 77.0514 125.56 76.6146C125.97 76.1778 126.27 75.6045 126.461 74.8947C126.816 73.5842 126.993 72.4103 126.993 71.3729C126.993 69.571 126.42 67.6736 125.273 65.6807L124.823 64.9026C124.304 64.0017 123.867 63.1963 123.513 62.4865C123.158 61.7766 122.857 61.0122 122.612 60.1932C122.284 59.1285 122.12 58.0637 122.12 56.999C122.12 55.7978 122.393 54.5419 122.939 53.2315C123.212 52.6036 123.594 52.0985 124.086 51.7163C124.605 51.3068 125.178 51.102 125.806 51.102C126.297 51.102 126.748 51.2658 127.157 51.5935C127.594 51.8938 127.812 52.2623 127.812 52.6991C127.812 52.9448 127.717 53.136 127.526 53.2725C127.335 53.409 127.103 53.4772 126.83 53.4772C126.529 53.4772 126.243 53.3953 125.97 53.2315C125.369 53.2588 124.891 53.7912 124.536 54.8286C124.236 55.7841 124.086 56.5758 124.086 57.2038C124.086 57.9955 124.209 58.8009 124.454 59.6199C124.7 60.4116 125.014 61.1351 125.396 61.7903L126.297 63.4283L127.731 66.1311C128.113 66.8955 128.413 67.7828 128.631 68.7929C128.877 69.8031 129 70.8269 129 71.8643C129 73.5296 128.618 75.1131 127.853 76.6146C127.471 77.379 126.925 77.9933 126.215 78.4574C125.533 78.9215 124.768 79.1536 123.922 79.1536V79.2764Z" fill="#FDF7E9"/>
</svg>
