<svg width="337" height="392" viewBox="0 0 337 392" fill="none" xmlns="http://www.w3.org/2000/svg">
<path d="M294.282 83.8076C294.851 81.563 292.697 79.0805 289.47 78.2629C286.244 77.4452 283.167 78.6019 282.598 80.8465C282.029 83.0911 284.184 85.5735 287.41 86.3912C290.637 87.2089 293.714 86.0522 294.282 83.8076Z" fill="#75A8A5"/>
<path d="M254.88 83.5536C255.449 81.309 253.294 78.8266 250.068 78.0089C246.841 77.1912 243.764 78.3479 243.195 80.5925C242.627 82.8371 244.781 85.3196 248.008 86.1373C251.234 86.955 254.311 85.7982 254.88 83.5536Z" fill="#75A8A5"/>
<path d="M293.647 99.0124C293.881 96.9218 292.891 95.0952 291.437 94.9327C289.983 94.7702 288.614 96.3333 288.381 98.4239C288.147 100.515 289.137 102.341 290.591 102.504C292.045 102.666 293.414 101.103 293.647 99.0124Z" fill="#F77B6E"/>
<path d="M269.219 78.8862C269.452 76.7956 268.463 74.969 267.008 74.8065C265.554 74.644 264.186 76.2071 263.952 78.2977C263.718 80.3883 264.708 82.2149 266.162 82.3774C267.617 82.5399 268.985 80.9768 269.219 78.8862Z" fill="#75A8A5"/>
<path d="M337 347.42H246.547V346.248C270.226 346.248 292.935 336.842 309.679 320.099C326.422 303.355 335.829 280.646 335.829 256.967V193.841H337V347.42Z" fill="#FDF7E9"/>
<path d="M90.1961 119.261C87.7916 120.177 85.3361 120.953 82.8421 121.586C79.5477 122.389 77.6876 122.761 74.5079 121.527C74.3962 121.484 74.2896 121.441 74.1891 121.399C68.1621 118.836 63.01 114.577 59.36 109.139C55.7101 103.702 53.7196 97.32 53.6309 90.7714C53.615 90.5468 53.615 90.3106 53.615 90.0802C53.6119 88.9703 53.665 87.861 53.774 86.7565C53.9133 85.252 54.154 83.7586 54.4943 82.2865L54.4626 82.2807C51.8882 79.6483 50.8976 76.0423 51.226 72.4191C51.451 69.9627 52.2306 67.5894 53.506 65.4781C54.7814 63.3668 56.5194 61.5724 58.589 60.2303C61.8325 58.1911 65.4896 56.9002 69.2945 56.4516C70.3162 56.3338 71.3437 56.2741 72.3722 56.273H82.0341C84.0296 55.8058 86.0569 55.4862 88.0993 55.3168H88.1152C107.561 53.7039 122.896 66.5954 121.466 82.2807C121.455 82.298 121.439 82.3153 121.429 82.3326C121.016 83.0065 120.65 83.6459 120.327 84.2565C120.015 84.8268 119.75 85.374 119.522 85.8924C117.747 89.9016 126.18 152.104 123.156 153.048C121.434 153.584 114.495 107.298 115.74 116.099C117.308 127.142 99.1547 115.949 90.1961 119.261Z" fill="#75A8A5"/>
<path d="M119.49 231.704L146.446 289.13L42.7534 278.629L64.3987 223.5L119.49 231.704Z" fill="#F77B6E"/>
<path d="M173.601 346.841C155.57 352.843 136.568 355.388 117.592 354.343L109.341 340.962C109.341 340.962 108.995 345.945 108.48 353.564C99.4473 352.517 90.5323 350.627 81.8518 347.919C65.3899 342.771 49.9588 334.795 34.3168 327.44C31.1485 308.553 29.9597 279.43 47.4757 262.476L141.755 279.752C141.755 279.752 156.882 291.066 152.835 295.119C148.789 299.166 148.162 298.539 150.821 301.198C153.479 303.856 159.224 307.411 159.283 309.736C159.306 310.644 165.754 327.106 173.601 346.841Z" fill="#75A8A5"/>
<path d="M103.027 120.736L80.249 122.325L65.527 136.551L60.371 137.471C55.7364 138.298 51.5662 140.796 48.651 144.493C45.7359 148.189 44.2787 152.827 44.5555 157.526C45.6161 175.495 47.9907 202.343 52.9538 211.053C60.6496 224.56 67.0062 220.322 60.6496 224.56C54.2931 228.797 50.0255 225.467 52.9538 232.165C55.8822 238.862 48.9959 247.452 48.9959 247.452L46.2546 250.193L49.1621 251.385L141.806 263.44C141.806 263.44 133.795 227.423 138.805 218.575C143.815 209.728 155.961 182.983 145.12 172.518L134.521 135.217L116.288 129.84L103.027 120.736Z" fill="#FFC18A"/>
<path d="M240.91 268.56C239.386 268.512 237.89 268.133 236.527 267.45C235.163 266.767 233.964 265.795 233.013 264.603C232.062 263.411 231.381 262.027 231.018 260.545C230.654 259.064 230.617 257.522 230.908 256.025L187.451 226.594L192.636 212.572L243.995 247.905C246.478 248.583 248.627 250.148 250.034 252.304C251.44 254.46 252.007 257.057 251.627 259.603C251.247 262.149 249.946 264.467 247.971 266.118C245.995 267.769 243.483 268.638 240.91 268.56Z" fill="#F77B6E"/>
<path d="M118.166 133.456L111.851 135.956L145.537 201.747L215.272 249.282L225.324 232.292L172.241 186.441L150.989 145.682C147.998 139.946 142.988 135.522 136.926 133.264C130.864 131.006 124.18 131.074 118.166 133.456Z" fill="#FFC18A"/>
<path d="M90.4525 114.95C103.084 114.95 113.325 104.71 113.325 92.078C113.325 79.4462 103.084 69.2061 90.4525 69.2061C77.8207 69.2061 67.5806 79.4462 67.5806 92.078C67.5806 104.71 77.8207 114.95 90.4525 114.95Z" fill="#F77B6E"/>
<path d="M110.342 82.406C109.961 82.6073 109.584 82.7927 109.203 82.9781C108.806 83.1688 108.409 83.3595 108.006 83.5396C100.352 87.0092 94.1169 87.3959 90.3347 82.406C90.2312 79.7808 89.6402 77.1978 88.5919 74.7887C88.7772 77.4809 88.0677 80.1588 86.5738 82.406H78.9565C71.1114 87.6131 67.0856 92.3964 72.5311 109.49C72.8859 110.613 75.3173 150.511 76.0113 153.578C64.1351 149.023 53.8905 100.655 53.6309 87.9097C53.615 87.7031 53.615 87.4859 53.615 87.274C53.6119 86.2531 53.665 85.2327 53.7739 84.2176C53.9137 82.8317 54.1545 81.4579 54.4943 80.107L54.4625 80.1017C53.2542 78.9465 52.3324 77.5251 51.7705 75.9506C51.2086 74.3762 51.0221 72.6923 51.226 71.0331C53.2183 68.4245 55.6838 66.2142 58.4937 64.5176C61.0487 63.2803 63.712 62.2803 66.4499 61.53C66.5188 61.5141 66.5771 61.4982 66.6459 61.4823C67.4829 61.2545 68.341 61.048 69.1992 60.8679C70.9676 60.497 72.7556 60.2264 74.5546 60.0574C74.687 60.0521 74.8141 60.0415 74.9306 60.0415C75.6502 60.042 76.3564 60.2359 76.9753 60.603C76.9806 60.603 76.9806 60.6083 76.9912 60.6083C77.5859 60.9636 78.0791 61.4661 78.4233 62.0673C78.7675 62.6684 78.9511 63.3481 78.9565 64.0408H87.4425C87.755 64.0408 88.0675 64.0514 88.3801 64.0673C100.198 64.5387 109.696 69.5922 110.305 81.2089C110.331 81.6114 110.342 82.0034 110.342 82.406Z" fill="#75A8A5"/>
<path d="M60.1711 83.3256C68.493 83.3256 75.2393 76.5793 75.2393 68.2574C75.2393 59.9355 68.493 53.1892 60.1711 53.1892C51.8492 53.1892 45.1029 59.9355 45.1029 68.2574C45.1029 76.5793 51.8492 83.3256 60.1711 83.3256Z" fill="#75A8A5"/>
<path d="M80.8582 61.2878C79.1463 69.4318 70.7005 74.3026 62.6206 72.3101C58.7405 71.3533 55.3994 68.8943 53.3323 65.4741C51.2652 62.0539 50.6415 57.9526 51.5983 54.0725C53.5908 45.9926 63.3967 48.322 69.8359 43.0502C78.945 35.5926 83.1668 50.3051 80.8582 61.2878Z" fill="#75A8A5"/>
<path d="M47.3788 287.984C60.2212 235.613 85.6671 190.6 127.809 155.332C129.44 152.649 132.068 150.722 135.118 149.975C138.168 149.228 141.389 149.72 144.076 151.345L244.258 212.088C246.941 213.719 248.867 216.347 249.614 219.397C250.362 222.446 249.869 225.668 248.244 228.355C232.159 282.093 208.068 328.723 167.814 361.007C166.183 363.69 163.555 365.616 160.505 366.364C157.456 367.111 154.234 366.618 151.547 364.993L51.3657 304.251C48.6826 302.62 46.7561 299.992 46.0087 296.942C45.2613 293.892 45.754 290.671 47.3788 287.984Z" fill="#FDF7E9"/>
<path opacity="0.2" d="M65.1852 305.634C62.5022 304.003 60.5757 301.374 59.8283 298.325C59.0809 295.275 59.5737 292.054 61.1986 289.367C74.0408 236.996 99.4868 191.982 141.628 156.715C142.708 154.958 144.232 153.519 146.047 152.541L144.076 151.345C141.389 149.721 138.168 149.228 135.118 149.975C132.069 150.722 129.44 152.649 127.809 155.332C85.6672 190.6 60.2213 235.613 47.379 287.984C45.7542 290.671 45.2614 293.892 46.0088 296.942C46.7562 299.991 48.6827 302.62 51.3657 304.251L151.547 364.993C153.33 366.066 155.365 366.649 157.446 366.682C159.527 366.715 161.579 366.197 163.395 365.181L65.1852 305.634Z" fill="black"/>
<path d="M157.356 390.797C180.541 390.797 199.336 372.002 199.336 348.817C199.336 325.632 180.541 306.836 157.356 306.836C134.171 306.836 115.376 325.632 115.376 348.817C115.376 372.002 134.171 390.797 157.356 390.797Z" fill="#75A8A5"/>
<path d="M157.356 391.383C148.937 391.383 140.707 388.887 133.707 384.209C126.708 379.532 121.252 372.884 118.03 365.106C114.808 357.329 113.965 348.77 115.608 340.513C117.25 332.256 121.304 324.671 127.257 318.718C133.21 312.765 140.795 308.711 149.052 307.069C157.308 305.426 165.867 306.269 173.645 309.491C181.423 312.713 188.071 318.168 192.748 325.168C197.425 332.168 199.922 340.398 199.922 348.817C199.909 360.102 195.421 370.922 187.441 378.902C179.461 386.882 168.641 391.37 157.356 391.383ZM157.356 307.422C149.169 307.422 141.166 309.85 134.358 314.399C127.551 318.947 122.245 325.412 119.112 332.976C115.979 340.54 115.159 348.863 116.757 356.893C118.354 364.923 122.296 372.299 128.085 378.088C133.875 383.877 141.251 387.819 149.28 389.417C157.31 391.014 165.633 390.194 173.197 387.061C180.761 383.928 187.226 378.622 191.775 371.815C196.323 365.007 198.751 357.004 198.751 348.817C198.738 337.842 194.373 327.32 186.613 319.56C178.852 311.8 168.331 307.435 157.356 307.422Z" fill="#75A8A5"/>
<path d="M151.629 370.666C150.904 370.666 150.189 370.497 149.541 370.173C148.892 369.848 148.328 369.378 147.894 368.798L136.441 353.527C136.072 353.036 135.804 352.478 135.651 351.884C135.499 351.289 135.465 350.671 135.551 350.063C135.638 349.456 135.843 348.871 136.155 348.343C136.468 347.815 136.881 347.354 137.372 346.986C137.863 346.618 138.422 346.35 139.016 346.198C139.611 346.046 140.229 346.012 140.837 346.099C141.444 346.186 142.028 346.392 142.556 346.705C143.084 347.018 143.545 347.432 143.912 347.923L151.405 357.913L170.65 329.047C170.99 328.537 171.427 328.098 171.937 327.757C172.446 327.416 173.018 327.178 173.619 327.058C174.221 326.938 174.84 326.937 175.441 327.056C176.043 327.175 176.615 327.411 177.126 327.752C177.636 328.092 178.074 328.529 178.415 329.039C178.756 329.548 178.994 330.12 179.114 330.721C179.235 331.323 179.235 331.942 179.116 332.543C178.997 333.145 178.761 333.717 178.421 334.227L155.515 368.586C155.101 369.208 154.543 369.721 153.89 370.082C153.236 370.444 152.506 370.643 151.759 370.664C151.716 370.665 151.672 370.666 151.629 370.666Z" fill="#FFC18A"/>
<path d="M292.932 136.079C294.601 135.937 295.873 134.88 295.773 133.72C295.674 132.559 294.241 131.734 292.573 131.877C290.905 132.019 289.633 133.076 289.732 134.236C289.832 135.397 291.264 136.222 292.932 136.079Z" fill="#75A8A5"/>
<path d="M311.702 129.712C313.37 129.569 314.642 128.513 314.543 127.353C314.444 126.192 313.011 125.367 311.343 125.51C309.674 125.652 308.403 126.709 308.502 127.869C308.601 129.03 310.034 129.855 311.702 129.712Z" fill="#75A8A5"/>
<path d="M284.035 121.759C285.704 121.617 286.975 120.56 286.876 119.4C286.777 118.239 285.344 117.414 283.676 117.557C282.008 117.7 280.736 118.756 280.835 119.916C280.934 121.077 282.367 121.902 284.035 121.759Z" fill="#F77B6E"/>
<path d="M276.162 117.145C276.88 116.983 277.273 116.015 277.04 114.983C276.807 113.95 276.036 113.245 275.318 113.407C274.6 113.57 274.207 114.538 274.44 115.57C274.673 116.602 275.444 117.307 276.162 117.145Z" fill="#E6E6E6"/>
<path d="M270.557 105.943C271.275 105.781 271.668 104.812 271.434 103.78C271.201 102.748 270.43 102.043 269.712 102.205C268.994 102.368 268.601 103.336 268.834 104.368C269.068 105.4 269.839 106.105 270.557 105.943Z" fill="#75A8A5"/>
<path d="M297.451 121.674C298.169 121.512 298.562 120.544 298.329 119.512C298.095 118.48 297.324 117.774 296.606 117.937C295.888 118.099 295.495 119.067 295.729 120.099C295.962 121.131 296.733 121.837 297.451 121.674Z" fill="#E6E6E6"/>
<path d="M289.253 128.48C289.971 128.318 290.364 127.35 290.131 126.317C289.897 125.285 289.126 124.58 288.408 124.742C287.69 124.905 287.297 125.873 287.53 126.905C287.764 127.937 288.535 128.642 289.253 128.48Z" fill="#F77B6E"/>
<path d="M304.177 134.023C304.895 133.861 305.288 132.893 305.055 131.861C304.822 130.829 304.051 130.124 303.333 130.286C302.615 130.448 302.222 131.416 302.455 132.448C302.688 133.481 303.459 134.186 304.177 134.023Z" fill="#75A8A5"/>
<path d="M219.159 65.7489C219.445 64.6198 218.361 63.3712 216.738 62.9599C215.115 62.5486 213.567 63.1304 213.281 64.2594C212.995 65.3885 214.079 66.6371 215.702 67.0484C217.325 67.4597 218.873 66.8779 219.159 65.7489Z" fill="#F77B6E"/>
<path d="M223.779 71.9491C223.896 70.8975 223.399 69.9787 222.667 69.897C221.935 69.8152 221.247 70.6015 221.13 71.653C221.012 72.7046 221.51 73.6234 222.241 73.7051C222.973 73.7869 223.661 73.0007 223.779 71.9491Z" fill="#E6E6E6"/>
<path d="M225.409 84.369C225.526 83.3174 225.028 82.3986 224.297 82.3169C223.565 82.2352 222.877 83.0214 222.759 84.073C222.642 85.1246 223.14 86.0433 223.871 86.1251C224.603 86.2068 225.291 85.4206 225.409 84.369Z" fill="#75A8A5"/>
<path d="M205.146 60.7005C205.263 59.6489 204.766 58.7302 204.034 58.6484C203.302 58.5667 202.614 59.3529 202.497 60.4045C202.379 61.4561 202.877 62.3749 203.609 62.4566C204.34 62.5383 205.028 61.7521 205.146 60.7005Z" fill="#E6E6E6"/>
<path d="M1.17125 153.578H0V0H90.4525V1.17125C66.7737 1.17125 44.0646 10.5776 27.3211 27.3211C10.5776 44.0646 1.17125 66.7736 1.17125 90.4524V153.578Z" fill="#FDF7E9"/>
<path d="M53.6255 288.539C52.1286 287.925 50.7828 286.994 49.6812 285.81C48.5796 284.625 47.7484 283.215 47.2452 281.678C46.742 280.14 46.5788 278.512 46.7668 276.905C46.9549 275.299 47.4897 273.752 48.3342 272.372L16.0632 227.009L26.416 214.998L64.3508 269.157C66.5675 270.751 68.1222 273.103 68.7205 275.767C69.3188 278.432 68.9191 281.223 67.5971 283.612C66.275 286.001 64.1226 287.822 61.5475 288.73C58.9725 289.638 56.1537 289.57 53.6255 288.539Z" fill="#F77B6E"/>
<path d="M54.367 144.785C52.7344 143.824 50.8129 143.477 48.9473 143.805C47.0817 144.134 45.3943 145.117 44.1879 146.577L0.585571 207.557L40.9936 264.948L56.8054 247.965L32.2092 209.314L64.8977 178.191C67.584 172.306 67.9943 165.635 66.0494 159.465C64.1045 153.295 59.9425 148.065 54.367 144.785Z" fill="#FFC18A"/>
<path d="M143.895 261.676C142.592 259.166 138.347 253.497 131.795 250.9" stroke="#F77B6E" stroke-width="5"/>
<path d="M140.467 264.126C138.698 261.92 133.426 257.19 126.494 255.924" stroke="#F77B6E" stroke-width="5"/>
<path d="M138.164 267.145C135.856 265.51 129.488 262.412 122.474 263.101" stroke="#F77B6E" stroke-width="5"/>
<path d="M163.473 270.611C166.234 269.995 173.305 269.6 179.507 272.947" stroke="#F77B6E" stroke-width="5"/>
<path d="M163.802 274.812C166.629 274.748 173.641 275.743 179.069 280.238" stroke="#F77B6E" stroke-width="5"/>
<path d="M162.971 278.517C165.707 279.233 172.175 282.117 176.158 287.932" stroke="#F77B6E" stroke-width="5"/>
<path d="M150.451 234.14C149.296 229.759 145.762 220.198 140.86 217C138.38 214.893 131.832 215.212 125.48 233.346M135.095 224.472C137.081 225.436 141.196 228.526 141.768 233.176" stroke="#F77B6E" stroke-width="5"/>
<path d="M178.674 249.263C182.771 247.33 192.366 243.887 197.967 245.585C201.176 246.129 205.143 251.349 195.34 267.875M195.952 254.805C193.937 253.904 188.925 252.739 184.996 255.292" stroke="#F77B6E" stroke-width="5"/>
<path d="M148.385 266.737C149.416 267.856 151.241 269.019 152.024 269.46C154.2 270.474 156.569 270.893 157.482 270.976C158.903 272.826 157.192 274.456 156.159 275.04C152.5 277.992 149.055 277.627 147.79 277.075C145.564 274.211 144.939 271.028 144.905 269.795C143.978 265.71 146.839 266.054 148.385 266.737Z" fill="#F77B6E"/>
<path d="M147.79 277.075C145.564 274.211 144.939 271.028 144.905 269.795C143.978 265.71 146.839 266.054 148.385 266.737C149.416 267.856 151.241 269.019 152.024 269.46C154.2 270.474 156.569 270.893 157.482 270.976C158.903 272.826 157.192 274.456 156.159 275.04C152.5 277.992 149.055 277.627 147.79 277.075ZM147.79 277.075C143.572 279.104 133.928 280.613 129.092 270.415M147.79 277.075C150.049 282.351 156.922 291.673 166.34 286.748" stroke="#F77B6E" stroke-width="5"/>
</svg>
