<svg width="278" height="279" viewBox="0 0 278 279" fill="none" xmlns="http://www.w3.org/2000/svg">
<path d="M222.245 277.511L186.638 276.57C186.638 276.57 189.318 261.651 180.719 257.51C174.858 254.686 169.656 241.495 171.136 232.52C171.156 232.4 171.176 232.281 171.199 232.164C171.949 228.145 174.093 225.033 178.192 224.188C191.445 221.457 200.902 223.574 200.902 223.574C200.902 223.574 203.091 223.6 206.335 224.167C206.451 224.185 206.567 224.207 206.682 224.23C215.865 225.904 232.839 231.866 233.574 253.035C234.586 282.119 222.245 277.506 222.245 277.506V277.511Z" fill="#75A8A5"/>
<path d="M206.335 224.169C206.275 225.687 205.905 227.195 205.23 228.628C203.831 231.599 201.279 233.869 198.048 235.018C188.369 238.465 177.075 235.046 171.363 231.34C171.34 231.457 170.887 233.679 170.867 233.798C173.396 235.409 185.775 236.962 188.123 236.962C191.689 236.962 195.121 236.412 198.174 235.323C201.493 234.14 204.113 231.808 205.55 228.757C206.237 227.3 206.614 225.771 206.682 224.23C206.567 224.207 206.451 224.186 206.335 224.167V224.169Z" fill="#FFC18A"/>
<path d="M208.967 226.101L203.293 212.821C203.293 212.821 210.105 201.956 204.752 200.75C199.399 199.541 193.886 206.03 193.886 206.03C193.886 206.03 183.669 202.71 179.778 205.426C179.778 205.426 173.29 196.975 169.4 198.635C165.507 200.295 170.784 212.259 170.784 212.259C170.784 212.259 162.751 223.232 168.914 229.569C175.077 235.908 198.267 241.039 208.97 226.099L208.967 226.101Z" fill="#75A8A5"/>
<path d="M221.14 269.563C223.073 270.364 225.091 271.179 227.205 271.102C229.319 271.025 231.541 269.758 231.87 267.814C232.042 266.809 231.704 265.735 232.117 264.793C232.673 263.529 234.465 263.039 235.857 263.473C237.251 263.906 238.273 265.025 239.007 266.208C240.381 268.423 240.93 271.331 239.458 273.49C238.182 275.361 235.761 276.209 233.511 276.935C230.512 277.902 227.165 278.86 224.258 277.673C221.336 276.478 219.743 273.029 220.825 270.235" fill="#75A8A5"/>
<path d="M189.17 220.132C189.17 220.132 185.677 218.832 183.409 220.457L186.029 224.195L189.172 220.134L189.17 220.132Z" fill="#FFC18A"/>
<path d="M170.837 237.189L177.297 269.196C177.297 269.196 167.52 278.457 180.09 278.293C192.66 278.132 188.994 272.12 188.994 272.12L184.977 244.338" fill="#75A8A5"/>
<path d="M179.773 278.53C176.368 278.53 174.309 277.804 173.65 276.368C172.45 273.755 176.358 269.772 177.027 269.116L172.684 245.188L173.18 245.111L177.566 269.273L177.475 269.357C177.43 269.399 172.961 273.678 174.113 276.183C174.705 277.471 176.71 278.101 180.087 278.057C184.781 277.996 187.806 277.08 188.837 275.411C189.766 273.907 188.785 272.249 188.775 272.233L188.752 272.193L188.744 272.149L185.951 252.815L186.449 252.752L189.238 272.043C189.404 272.336 190.272 274.024 189.278 275.64C188.138 277.49 185.048 278.462 180.095 278.525C179.987 278.525 179.881 278.525 179.775 278.525L179.773 278.53Z" fill="#FDF7E9"/>
<path d="M187.247 237.189L193.707 269.196C193.707 269.196 183.93 278.457 196.5 278.293C209.07 278.132 205.404 272.12 205.404 272.12L201.387 244.338" fill="#75A8A5"/>
<path d="M196.183 278.53C192.778 278.53 190.72 277.804 190.061 276.368C188.86 273.76 192.761 269.781 193.435 269.118L190.841 256.239L191.336 256.152L193.979 269.271L193.886 269.357C193.84 269.399 189.371 273.678 190.524 276.183C191.115 277.471 193.123 278.103 196.498 278.057C201.194 277.996 204.221 277.08 205.25 275.406C206.179 273.898 205.195 272.249 205.185 272.233L205.16 272.193L201.138 244.366L201.637 244.303L205.645 272.043C205.812 272.336 206.68 274.024 205.686 275.64C204.546 277.49 201.455 278.462 196.503 278.525C196.395 278.525 196.289 278.525 196.183 278.525V278.53Z" fill="#FDF7E9"/>
<path d="M81.2248 0.174262C81.2248 0.174262 92.8488 -2.64288 99.8837 14.3767C105.746 28.5632 109.905 36.1392 105.147 41.2854C103.444 43.1263 101.014 44.1184 98.5096 44.2033L71.7176 45.084C71.7176 45.084 61.8815 19.2894 67.8606 9.96262C73.8397 0.630522 81.2248 0.174262 81.2248 0.174262Z" fill="#75A8A5"/>
<path d="M75.6754 42.9406L88.5621 47.1796V28.6268H76.8691L75.6754 42.9406Z" fill="#FDF7E9"/>
<path d="M85.5646 267.755H97.6395L104.637 203.252H85.9784L85.5646 267.755Z" fill="#FDF7E9"/>
<path d="M109.396 278.121C110.664 278.121 111.794 278.089 112.648 278.01C115.858 277.718 118.914 275.352 120.452 273.967C121.142 273.346 121.365 272.354 121.004 271.5C120.744 270.885 120.23 270.428 119.593 270.248L111.12 267.829L97.4008 258.571L97.2469 258.847C97.1885 258.948 95.841 261.378 95.39 263.017C95.2203 263.643 95.2627 264.163 95.5227 264.561C95.703 264.842 95.9524 265.001 96.1593 265.091C95.9099 265.351 95.1301 265.876 92.7374 266.258C89.2358 266.815 88.5037 263.187 88.4719 263.033L88.4506 262.911L88.3445 262.842C86.6787 261.77 85.6547 261.282 85.2993 261.383C85.0764 261.446 84.7104 261.558 83.7183 271.436C83.6175 271.744 82.9225 274.02 83.3946 276.19C83.9093 278.556 94.2388 277.739 96.3079 277.553C96.3662 277.559 104.101 278.111 109.401 278.111V278.121H109.396Z" fill="#75A8A5"/>
<path d="M58.2951 267.755H70.3647L77.3678 203.252H58.7089L58.2951 267.755Z" fill="#FDF7E9"/>
<path d="M82.1214 278.121C83.3894 278.121 84.5194 278.089 85.3736 278.01C88.5833 277.718 91.6392 275.352 93.1778 273.967C93.8674 273.346 94.0903 272.354 93.7295 271.5C93.4695 270.885 92.9549 270.428 92.3183 270.248L83.8457 267.829L70.126 258.571L69.9722 258.847C69.9138 258.948 68.5663 261.378 68.1153 263.017C67.9455 263.643 67.988 264.163 68.2479 264.561C68.4283 264.842 68.6777 265.001 68.8846 265.091C68.6352 265.351 67.8553 265.876 65.4626 266.258C61.9611 266.815 61.229 263.187 61.1971 263.033L61.1759 262.911L61.0698 262.842C59.4039 261.77 58.38 261.282 58.0245 261.383C57.8017 261.446 57.4356 261.558 56.4436 271.436C56.3428 271.744 55.6478 274.02 56.1199 276.19C56.6346 278.556 66.9641 277.739 69.0331 277.553C69.0915 277.559 76.8267 278.111 82.1267 278.111V278.121H82.1214Z" fill="#75A8A5"/>
<path d="M54.8201 109.326H113.476L92.3925 39.9377H69.0066L54.8201 109.326Z" fill="#75A8A5"/>
<path d="M115.073 148.262C115.773 152.512 118.606 155.562 121.402 155.069C124.198 154.576 125.901 150.735 125.201 146.485C124.946 144.782 124.272 143.175 123.238 141.79L120.044 123.821L111.349 125.64L115.423 143.159C114.887 144.814 114.765 146.565 115.068 148.262H115.073Z" fill="#FDF7E9"/>
<path d="M88.7 39.9484C88.7 39.9484 103.268 39.5664 104.802 43.3969C106.335 47.2327 124.352 138.474 124.352 138.474H112.468L88.7 39.9484Z" fill="#FDF7E9"/>
<path d="M85.607 33.009C78.5133 33.009 72.7628 27.2585 72.7628 20.1648C72.7628 13.0711 78.5133 7.32056 85.607 7.32056C92.7007 7.32056 98.4512 13.0711 98.4512 20.1648C98.4512 27.2585 92.7007 33.009 85.607 33.009Z" fill="#FDF7E9"/>
<path d="M83.591 4.41326C83.591 4.41326 100.08 28.9399 97.3053 44.2405L106.897 38.2295C106.897 38.2295 100.144 7.25693 90.0794 4.85361L83.591 4.40796V4.41326Z" fill="#75A8A5"/>
<path d="M67.0118 109.326H105.502L126.564 195.766C126.952 199.416 124.638 202.822 121.089 203.772C109.534 206.865 81.8084 211.253 39.8378 199.04C35.8004 197.867 33.5085 193.607 34.7765 189.596L67.0118 109.332V109.326Z" fill="#75A8A5"/>
<path d="M118.925 52.2462L119.19 51.9809L119.455 52.2462C132.363 39.3489 153.282 39.3648 166.179 52.2727C179.077 65.1859 179.337 86.3649 166.429 99.2621L119.158 146.485L71.9192 99.2038C59.022 86.2906 59.2925 65.1116 72.1951 52.2143C85.103 39.3171 106.022 39.333 118.919 52.2409L118.925 52.2462Z" fill="#FFC18A"/>
<path d="M84.0154 46.4315L73.3516 40.9617C68.476 39.1579 63.0381 39.7627 58.6771 42.601C45.4137 51.2275 19.269 70.2472 30.5057 79.6483C45.3129 92.0415 65.33 70.0615 65.33 70.0615L84.0154 46.4315Z" fill="#75A8A5"/>
<path d="M84.2489 55.7795C87.9573 53.5937 89.777 49.8482 88.3075 47.413C86.8379 44.9832 82.6414 44.7869 78.9276 46.9727C77.4315 47.8268 76.1741 49.0364 75.2616 50.5007L59.6639 59.9761L64.5024 67.4248L79.368 57.2915C81.1081 57.1907 82.7846 56.6708 84.2542 55.7742H84.2489V55.7795Z" fill="#FDF7E9"/>
<path d="M73.6488 64.3689L69.2135 53.7741L47.5412 60.9469L57.234 77.0805L73.6488 64.3689Z" fill="#75A8A5"/>
<line y1="277.03" x2="278" y2="277.03" stroke="#FFC18A" stroke-width="3"/>
</svg>
