<svg width="60" height="60" viewBox="0 0 60 60" fill="none" xmlns="http://www.w3.org/2000/svg">
<g clip-path="url(#clip0_207_430)">
<path d="M40 10H20C14.4772 10 10 14.4772 10 20V40C10 45.5228 14.4772 50 20 50H40C45.5228 50 50 45.5228 50 40V20C50 14.4772 45.5228 10 40 10Z" stroke="#FFC18A" stroke-width="2.25" stroke-linecap="round" stroke-linejoin="round"/>
<path d="M30 37.5C34.1421 37.5 37.5 34.1421 37.5 30C37.5 25.8579 34.1421 22.5 30 22.5C25.8579 22.5 22.5 25.8579 22.5 30C22.5 34.1421 25.8579 37.5 30 37.5Z" stroke="#FFC18A" stroke-width="2.25" stroke-linecap="round" stroke-linejoin="round"/>
<path d="M41.25 18.75V18.751" stroke="#FFC18A" stroke-width="2.25" stroke-linecap="round" stroke-linejoin="round"/>
</g>
<defs>
<clipPath id="clip0_207_430">
<rect width="60" height="60" fill="white"/>
</clipPath>
</defs>
</svg>
