<svg width="194" height="36" viewBox="0 0 194 36" fill="none" xmlns="http://www.w3.org/2000/svg">
<path d="M74.0536 4.09778L71.2364 0C71.6462 1.02444 70.3827 3.1587 69.6997 4.09778C68.4704 4.71244 67.3094 6.06129 66.8825 6.65889C65.2434 9.73222 66.1996 13.0617 66.8825 14.3422C61.7603 11.6787 56.7235 12.3787 54.8453 13.0617C48.9035 15.7252 46.0522 23.2207 45.3692 26.6355C44.9594 28.8893 42.6373 30.3065 41.5275 30.7333H2.85477C0.191219 30.7333 -0.133188 32.6115 0.0375528 33.5505C0.0375528 34.9848 1.9157 35.5141 2.85477 35.5994H71.2364C73.0804 35.5994 78.1139 35.5141 79.3944 34.8311C85.5411 31.7578 83.0175 23.8183 81.737 20.4889C80.7125 17.8253 81.3101 16.4765 81.737 16.135C84.8103 12.2421 83.8712 8.19555 83.0175 6.65889C82.198 5.22466 81.8223 2.305 81.737 1.02444L79.1759 4.09778C77.3319 3.48311 74.9927 3.84167 74.0536 4.09778Z" fill="#F77B6E"/>
<path d="M92.2082 30.8972C91.9678 30.8972 91.7711 30.7989 91.6181 30.6022C91.487 30.3837 91.4214 30.1214 91.4214 29.8154L91.487 24.308C91.5525 21.6417 91.5853 19.5765 91.5853 18.1122C91.5853 13.02 91.3012 9.11893 90.733 6.40893C91.0608 5.90627 91.476 5.65494 91.9787 5.65494C92.7873 5.65494 93.5195 5.8407 94.1751 6.21224C94.8526 6.56191 95.4099 7.04272 95.847 7.65465C96.6993 8.92223 97.1255 10.3428 97.1255 11.9163C97.1255 13.5555 96.7758 15.0197 96.0765 16.3092C95.3771 17.5986 94.3609 18.6039 93.0277 19.3251L93.0933 22.6361L93.1589 24.3736C93.1807 24.7451 93.1916 25.2806 93.1916 25.9799C93.2572 27.4442 93.29 28.6353 93.29 29.5532C93.29 29.9684 93.2026 30.2962 93.0277 30.5366C92.8529 30.777 92.5797 30.8972 92.2082 30.8972ZM92.9622 17.7516C93.8145 16.9429 94.4374 16.1015 94.8307 15.2273C95.246 14.3313 95.4536 13.326 95.4536 12.2114V12.1786C95.4536 11.6759 95.399 11.0421 95.2897 10.2772C95.2241 10.015 95.1039 9.75271 94.9291 9.49046C94.7543 9.2282 94.6559 9.07522 94.6341 9.03151C94.4811 8.81296 94.0768 8.47421 93.4211 8.01526L92.5688 7.3924C92.5688 8.50699 92.6343 10.2335 92.7655 12.572L92.9622 17.7516Z" fill="#F77B6E"/>
<path d="M104.078 31.2251C103.554 31.2251 103.084 31.1049 102.669 30.8645C102.253 30.6459 101.915 30.3181 101.652 29.881C101.128 28.9631 100.789 27.925 100.636 26.7667C100.483 25.7614 100.407 24.5593 100.407 23.1606C100.341 20.8003 100.308 17.9155 100.308 14.5061L100.275 11.9819C100.254 11.8508 100.243 11.6322 100.243 11.3263C100.199 10.4958 100.177 9.99312 100.177 9.81828C100.374 9.35933 100.603 9.12985 100.865 9.12985C101.128 9.12985 101.357 9.32655 101.554 9.71993C101.772 10.1133 101.882 10.5395 101.882 10.9984V19.9152C101.882 20.7894 101.958 21.9477 102.111 23.3901C102.264 25.1822 102.341 26.3405 102.341 26.865C102.341 28.4823 103.029 29.2909 104.406 29.2909C105.98 29.2909 106.766 23.412 106.766 11.6541V9.52324C106.744 9.45767 106.734 9.37026 106.734 9.26098C106.734 8.99872 106.788 8.81296 106.897 8.70368C107.029 8.57255 107.269 8.50699 107.619 8.50699C107.903 8.50699 108.121 8.59441 108.274 8.76925C108.449 8.92223 108.558 9.108 108.602 9.32655C108.624 9.45767 108.635 9.709 108.635 10.0805C108.635 10.4302 108.602 10.9875 108.537 11.7524C108.449 12.3862 108.405 12.9326 108.405 13.3915C108.405 13.8942 108.384 14.3422 108.34 14.7356L108.274 16.1125V16.3747C108.296 16.4621 108.307 16.5605 108.307 16.6698C108.307 26.3733 106.897 31.2251 104.078 31.2251Z" fill="#F77B6E"/>
<path d="M118.152 31.2906C117.672 31.2906 117.235 30.7661 116.841 29.7171C116.382 28.5806 116.043 27.4114 115.825 26.2094L115.595 25.0948C114.962 21.9696 114.557 20.1884 114.383 19.7513H113.989C113.989 20.3851 113.978 20.9642 113.956 21.4887V23.2918C113.956 26.2203 114.164 28.5041 114.579 30.1433L114.219 31.0284H113.301L112.875 30.5366L112.907 28.3402C112.907 26.3733 112.809 23.3901 112.612 19.3907C112.437 15.129 112.35 12.1458 112.35 10.4411C112.35 9.39211 112.711 8.86759 113.432 8.86759C114.612 8.86759 115.574 9.17356 116.317 9.7855C117.082 10.3974 117.464 11.2498 117.464 12.3425V14.6373C117.464 14.9651 117.409 15.3475 117.3 15.7846C117.191 16.1999 117.071 16.5386 116.94 16.8009L116.317 17.981L115.792 18.9645L115.956 19.7513L116.415 22.0788C116.721 23.7616 117.016 25.1276 117.3 26.1766C117.584 27.2256 117.934 28.1763 118.349 29.0287L118.546 29.422C118.764 29.8591 118.874 30.2088 118.874 30.4711C118.874 30.6896 118.808 30.8754 118.677 31.0284C118.546 31.2032 118.371 31.2906 118.152 31.2906ZM114.12 18.145C114.601 17.9046 115.005 17.2489 115.333 16.178C115.683 15.0853 115.858 14.08 115.858 13.1621C115.858 12.4627 115.77 11.8071 115.595 11.1951C115.486 10.8455 115.3 10.5832 115.038 10.4084C114.798 10.2117 114.492 10.1133 114.12 10.1133L114.055 10.2772L113.989 10.5723L114.055 14.4406C114.098 15.577 114.12 16.8118 114.12 18.145Z" fill="#F77B6E"/>
<path d="M122.772 31.0284C122.444 31.0284 122.051 30.8645 121.592 30.5366C121.767 28.7227 121.909 25.9362 122.018 22.1772C122.127 18.2652 122.204 15.9158 122.248 15.129V14.3422C122.335 12.2005 122.379 10.7143 122.379 9.88384C122.379 9.57788 122.499 9.33747 122.739 9.16263C123.002 8.9878 123.297 8.90038 123.625 8.90038C124.389 8.90038 125.209 8.96594 126.083 9.09707C126.651 9.18449 127.099 9.32655 127.427 9.52324C127.777 9.71993 127.952 9.96034 127.952 10.2444C127.952 10.8564 127.394 11.1624 126.28 11.1624C125.865 10.9438 125.296 10.8345 124.575 10.8345H124.182V11.2279C124.182 12.0803 124.138 13.1621 124.051 14.4734C123.941 15.6972 123.887 16.8009 123.887 17.7844V18.6695H124.477C125.548 18.6695 126.083 18.9536 126.083 19.5218C126.083 19.8059 125.963 20.0354 125.723 20.2102C125.504 20.3851 125.231 20.4725 124.903 20.4725C124.379 20.4725 123.952 20.4179 123.625 20.3086V29.586C123.625 30.5476 123.34 31.0284 122.772 31.0284Z" fill="#F77B6E"/>
<path d="M131.691 31.1595C131.407 31.1595 131.145 31.0612 130.904 30.8645C130.686 30.6678 130.566 30.4274 130.544 30.1433V28.6353C130.522 28.4386 130.511 28.2091 130.511 27.9468C130.511 27.4879 130.478 26.7885 130.413 25.8488L130.347 23.7507C130.347 22.6798 130.38 21.0844 130.446 18.9645C130.533 17.0631 130.577 15.4677 130.577 14.1783C130.577 13.8723 130.544 13.4134 130.478 12.8015C130.413 12.1677 130.38 11.7087 130.38 11.4246C130.38 9.87292 130.839 9.09707 131.757 9.09707C132.478 9.09707 133.309 9.23913 134.248 9.52324C135.21 9.80735 135.691 10.1461 135.691 10.5395C135.691 10.758 135.592 10.9657 135.396 11.1624C135.221 11.3372 135.002 11.4792 134.74 11.5885C133.822 11.2607 132.992 11.0421 132.249 10.9329C132.27 11.2607 132.281 11.7306 132.281 12.3425C132.281 13.2167 132.27 14.0035 132.249 14.7028C132.183 15.7519 132.15 16.5386 132.15 17.0631L132.249 17.5877L132.773 17.5549C132.948 17.533 133.166 17.5221 133.429 17.5221C134.478 17.5221 135.002 17.8281 135.002 18.44C135.002 18.6804 134.904 18.888 134.707 19.0629C134.511 19.2158 134.259 19.2923 133.953 19.2923C133.56 19.2923 133.254 19.2705 133.035 19.2268H132.216C132.259 19.795 132.281 20.6255 132.281 21.7182C132.281 22.811 132.27 23.7944 132.249 24.6686C132.183 26.0018 132.15 26.9962 132.15 27.6518C132.15 28.8757 132.172 29.4876 132.216 29.4876L133.298 29.4548C133.669 29.433 134.117 29.422 134.642 29.422C135.472 29.422 135.887 29.6843 135.887 30.2088C135.887 30.5148 135.745 30.7443 135.461 30.8972C135.199 31.0721 134.871 31.1595 134.478 31.1595H131.691Z" fill="#F77B6E"/>
<path d="M143.892 31.1923C143.411 31.1923 142.898 31.1158 142.351 30.9628C141.827 30.8317 141.423 30.6787 141.138 30.5039C139.674 29.5641 138.942 26.9962 138.942 22.8V20.1119C138.942 19.2377 138.953 18.4619 138.975 17.7844C138.997 17.085 139.04 16.331 139.106 15.5224C139.172 14.67 139.27 13.9816 139.401 13.4571C139.532 12.9107 139.751 12.2988 140.057 11.6213C140.319 10.9875 140.636 10.4958 141.007 10.1461C141.401 9.79642 141.903 9.50138 142.515 9.26098C143.062 9.02058 143.739 8.90038 144.548 8.90038C144.876 8.90038 145.127 8.97687 145.302 9.12985C145.477 9.28284 145.564 9.47953 145.564 9.71993C145.564 9.93848 145.488 10.1352 145.335 10.31C145.203 10.4849 145.04 10.5832 144.843 10.6051H143.302C142.865 10.6051 142.483 10.8782 142.155 11.4246C141.827 11.971 141.597 12.6813 141.466 13.5555C141.182 15.1727 141.04 16.484 141.04 17.4893V17.6532L140.975 20.8003C140.931 21.7401 140.909 22.8 140.909 23.9802C140.909 24.8107 140.942 25.4882 141.007 26.0127C141.117 26.7995 141.302 27.4551 141.565 27.9796C141.827 28.5697 142.275 28.9959 142.909 29.2581C143.236 29.3893 143.597 29.4548 143.99 29.4548C144.231 29.4548 144.471 29.3674 144.712 29.1926C144.996 29.1926 145.225 29.2581 145.4 29.3893C145.597 29.4985 145.695 29.6734 145.695 29.9138C145.695 30.7661 145.094 31.1923 143.892 31.1923Z" fill="#F77B6E"/>
<path d="M150.491 30.2088L150.458 28.9303C150.436 28.5588 150.426 28.1435 150.426 27.6846L150.458 26.57C150.393 26.3296 150.229 23.9365 149.967 19.3907C149.704 14.8449 149.551 11.9273 149.508 10.6378C148.24 10.5941 147.431 10.463 147.082 10.2444C146.841 10.0696 146.721 9.87292 146.721 9.65437C146.721 9.47953 146.83 9.32655 147.049 9.19542C147.289 9.04243 147.53 8.96594 147.77 8.96594C148.382 8.96594 149.125 9.00965 149.999 9.09707C150.83 9.20634 151.573 9.26098 152.229 9.26098H152.753C153.431 9.26098 153.769 9.52324 153.769 10.0478C153.769 10.31 153.66 10.5286 153.441 10.7034C153.223 10.8564 152.972 10.9329 152.688 10.9329C152.491 10.9329 152.207 10.9001 151.835 10.8345L151.18 10.7034L151.114 11.0312C151.114 12.9763 151.3 16.0797 151.671 20.3414C152.021 24.3408 152.196 27.4442 152.196 29.6515C152.196 29.9138 152.076 30.1432 151.835 30.3399C151.617 30.5366 151.365 30.635 151.081 30.635L150.491 30.2088Z" fill="#F77B6E"/>
<path d="M158.125 30.8972C157.884 30.8972 157.688 30.7989 157.535 30.6022C157.404 30.3837 157.338 30.1214 157.338 29.8154L157.404 24.308C157.469 21.6417 157.502 19.5765 157.502 18.1122C157.502 13.02 157.218 9.11893 156.65 6.40893C156.977 5.90627 157.393 5.65494 157.895 5.65494C158.704 5.65494 159.436 5.8407 160.092 6.21224C160.769 6.56191 161.326 7.04272 161.764 7.65465C162.616 8.92223 163.042 10.3428 163.042 11.9163C163.042 13.5555 162.692 15.0197 161.993 16.3092C161.294 17.5986 160.277 18.6039 158.944 19.3251L159.01 22.6361L159.075 24.3736C159.097 24.7451 159.108 25.2806 159.108 25.9799C159.174 27.4442 159.207 28.6353 159.207 29.5532C159.207 29.9684 159.119 30.2962 158.944 30.5366C158.769 30.777 158.496 30.8972 158.125 30.8972ZM158.879 17.7516C159.731 16.9429 160.354 16.1015 160.747 15.2273C161.163 14.3313 161.37 13.326 161.37 12.2114V12.1786C161.37 11.6759 161.316 11.0421 161.206 10.2772C161.141 10.015 161.021 9.75271 160.846 9.49046C160.671 9.2282 160.572 9.07522 160.551 9.03151C160.398 8.81296 159.993 8.47421 159.338 8.01526L158.485 7.3924C158.485 8.50699 158.551 10.2335 158.682 12.572L158.879 17.7516Z" fill="#F77B6E"/>
<path d="M171.953 31.0284C171.45 31.0284 171.078 30.9519 170.838 30.7989C170.598 30.6459 170.477 30.3618 170.477 29.9466C170.477 29.2909 170.368 28.1763 170.15 26.6028L170.019 25.9143L166.773 25.4226C166.642 25.9253 166.456 26.9415 166.216 28.4714C166.085 29.5422 165.877 30.2525 165.593 30.6022C165.44 30.7989 165.221 30.8972 164.937 30.8972C164.675 30.8972 164.435 30.8208 164.216 30.6678C163.998 30.4929 163.888 30.2853 163.888 30.0449L163.954 29.881L163.987 29.7499C165.429 24.1332 166.522 18.593 167.265 13.1293C167.265 13.0419 167.276 12.8998 167.298 12.7031C167.319 12.4846 167.341 12.1786 167.363 11.7852C167.429 10.9766 167.494 10.3319 167.56 9.85106C167.647 9.37026 167.778 9.00965 167.953 8.76925H169.068C169.374 8.76925 169.636 8.84574 169.855 8.99872C170.073 9.12985 170.182 9.32655 170.182 9.5888C170.182 11.2498 170.412 13.7194 170.871 16.9976C171.308 20.3632 171.527 22.7235 171.527 24.0785C171.527 24.2097 171.581 24.5484 171.69 25.0948C171.8 25.5975 171.854 25.9253 171.854 26.0783C171.854 26.2312 171.964 26.8869 172.182 28.0452C172.379 29.0942 172.477 29.7717 172.477 30.0777V30.1105C172.477 30.5913 172.302 30.8972 171.953 31.0284ZM169.789 24.7342C169.723 24.4064 169.691 24.002 169.691 23.5212C169.691 21.5543 169.516 19.041 169.166 15.9813L168.838 12.572C167.899 17.7079 167.254 21.5871 166.904 24.2097C167.232 24.4282 168.194 24.6031 169.789 24.7342Z" fill="#F77B6E"/>
<path d="M177.684 31.4218C177.247 31.4218 176.864 30.7661 176.537 29.4548C176.252 28.2965 176.012 26.865 175.815 25.1604C175.641 23.4338 175.455 21.2593 175.258 18.6367C175.149 16.932 174.996 15.1071 174.799 13.1621C174.646 11.5448 174.46 10.5067 174.242 10.0478C174.439 9.65437 174.755 9.45767 175.192 9.45767C175.892 9.45767 176.242 10.1789 176.242 11.6213C176.242 13.326 176.471 15.8174 176.93 19.0956C177.389 22.352 177.651 24.7233 177.717 26.2094L177.881 25.0948C178.099 23.6305 178.285 22.2537 178.438 20.9642C178.613 19.6529 178.755 18.2433 178.864 16.7353C179.017 15.0525 179.094 13.3915 179.094 11.7524L179.979 11.359C180.263 11.359 180.492 11.4355 180.667 11.5885C180.864 11.7196 180.962 11.9163 180.962 12.1786V12.4409C181.312 13.6647 181.596 15.0088 181.814 16.4731C182.055 17.9155 182.263 19.6202 182.437 21.5871C182.568 23.0951 182.721 24.5047 182.896 25.816C183.312 22.8875 183.519 19.2814 183.519 14.9979C183.519 14.3204 183.607 13.4899 183.781 12.5064C183.934 11.5011 184.011 10.6815 184.011 10.0478C183.945 9.85106 183.913 9.6653 183.913 9.49046C183.913 8.96594 184.24 8.70368 184.896 8.70368C185.158 8.70368 185.366 8.76925 185.519 8.90038C185.672 9.03151 185.748 9.21727 185.748 9.45767V9.94941C185.748 10.2772 185.716 10.5613 185.65 10.8017V10.9657C185.366 11.8398 185.224 12.8452 185.224 13.9816V16.3747C185.224 17.7516 185.06 19.8059 184.732 22.5378C184.382 25.2041 184.208 27.1929 184.208 28.5041V29.0942C184.208 29.5969 184.153 30.0231 184.044 30.3727C183.913 30.8098 183.596 31.0284 183.093 31.0284C182.743 31.0284 182.47 30.9191 182.273 30.7005C182.099 30.4601 182.011 30.1651 182.011 29.8154C182.011 28.0452 181.825 25.7504 181.454 22.9312C181.257 21.6636 181.05 20.3851 180.831 19.0956L180.307 15.6535C180.219 16.2873 180.175 16.9102 180.175 17.5221C180.175 18.746 180.088 20.3632 179.913 22.3739C179.738 24.3845 179.465 26.3405 179.094 28.2419C178.678 30.3618 178.208 31.4218 177.684 31.4218Z" fill="#F77B6E"/>
<path d="M189.935 31.1923C189.542 31.1267 189.203 30.9847 188.919 30.7661C188.657 30.5476 188.504 30.2635 188.46 29.9138L188.82 29.3565C188.952 29.3565 189.159 29.4002 189.443 29.4876C189.771 29.5532 190.022 29.586 190.197 29.586C190.591 29.586 190.94 29.4111 191.246 29.0614C191.574 28.7118 191.815 28.2528 191.968 27.6846C192.252 26.6356 192.394 25.6958 192.394 24.8653C192.394 23.4229 191.935 21.904 191.017 20.3086L190.656 19.6857C190.241 18.9645 189.891 18.3198 189.607 17.7516C189.323 17.1833 189.083 16.5714 188.886 15.9158C188.624 15.0634 188.493 14.2111 188.493 13.3588C188.493 12.3971 188.711 11.3918 189.148 10.3428C189.367 9.84013 189.673 9.43582 190.066 9.12985C190.481 8.80203 190.94 8.63812 191.443 8.63812C191.836 8.63812 192.197 8.76925 192.525 9.03151C192.874 9.27191 193.049 9.56695 193.049 9.91663C193.049 10.1133 192.973 10.2663 192.82 10.3756C192.667 10.4848 192.481 10.5395 192.263 10.5395C192.022 10.5395 191.793 10.4739 191.574 10.3428C191.093 10.3646 190.711 10.7908 190.427 11.6213C190.186 12.3862 190.066 13.02 190.066 13.5227C190.066 14.1565 190.164 14.8012 190.361 15.4568C190.558 16.0906 190.809 16.6698 191.115 17.1943L191.836 18.5056L192.984 20.6692C193.29 21.2811 193.53 21.9914 193.705 22.8C193.902 23.6087 194 24.4282 194 25.2587C194 26.5918 193.694 27.8594 193.082 29.0614C192.776 29.6734 192.339 30.1651 191.771 30.5366C191.224 30.9082 190.613 31.0939 189.935 31.0939V31.1923Z" fill="#F77B6E"/>
</svg>
