<svg width="60" height="60" viewBox="0 0 60 60" fill="none" xmlns="http://www.w3.org/2000/svg">
<g clip-path="url(#clip0_207_442)">
<path d="M22.5 30C20.5222 30 18.5888 30.5865 16.9443 31.6853C15.2998 32.7841 14.0181 34.3459 13.2612 36.1732C12.5043 38.0004 12.3063 40.0111 12.6922 41.9509C13.078 43.8907 14.0304 45.6725 15.4289 47.0711C16.8275 48.4696 18.6093 49.422 20.5491 49.8079C22.4889 50.1937 24.4996 49.9957 26.3268 49.2388C28.1541 48.4819 29.7159 47.2002 30.8147 45.5557C31.9135 43.9112 32.5 41.9778 32.5 40V10C32.5 13.3152 33.817 16.4946 36.1612 18.8388C38.5054 21.183 41.6848 22.5 45 22.5" stroke="#FFC18A" stroke-width="2.25" stroke-linecap="round" stroke-linejoin="round"/>
</g>
<defs>
<clipPath id="clip0_207_442">
<rect width="60" height="60" fill="white"/>
</clipPath>
</defs>
</svg>
