<svg width="237" height="146" viewBox="0 0 237 146" fill="none" xmlns="http://www.w3.org/2000/svg">
<path d="M191.902 9.39329L185.444 0C186.383 2.34832 183.487 7.24066 181.921 9.39329C179.103 10.8023 176.442 13.8942 175.464 15.2641C171.706 22.3091 173.898 29.9411 175.464 32.8765C163.722 26.7709 152.176 28.3756 147.871 29.9411C134.251 36.0468 127.714 53.2287 126.149 61.0564C125.209 66.2227 119.887 69.4712 117.343 70.4497H28.6934C22.5877 70.4497 21.8441 74.755 22.2355 76.9076C22.2355 80.1952 26.5408 81.4085 28.6934 81.6042H185.444C189.671 81.6042 201.209 81.4085 204.144 79.843C218.234 72.798 212.45 54.5985 209.514 46.9665C207.166 40.8608 208.536 37.7689 209.514 36.9861C216.559 28.0625 214.407 18.7866 212.45 15.2641C210.571 11.9764 209.71 5.28373 209.514 2.34832L203.643 9.39329C199.417 7.9843 194.054 8.80621 191.902 9.39329Z" fill="#F77B6E"/>
<path d="M3.38159 144.798C2.83051 144.798 2.37963 144.572 2.02895 144.121C1.72837 143.62 1.57807 143.019 1.57807 142.318L1.72837 129.693C1.87866 123.581 1.9538 118.847 1.9538 115.491C1.9538 103.818 1.30254 94.8755 0 88.6634C0.751463 87.5112 1.70332 86.9351 2.85556 86.9351C4.70917 86.9351 6.38744 87.3609 7.89037 88.2125C9.44339 89.0141 10.7209 90.1163 11.7228 91.519C13.6766 94.4246 14.6535 97.681 14.6535 101.288C14.6535 105.045 13.852 108.402 12.2489 111.358C10.6457 114.313 8.3162 116.618 5.26024 118.271L5.41054 125.861L5.56083 129.844C5.61093 130.695 5.63598 131.923 5.63598 133.526C5.78627 136.882 5.86141 139.613 5.86141 141.717C5.86141 142.669 5.66102 143.42 5.26024 143.971C4.85946 144.522 4.23324 144.798 3.38159 144.798ZM5.10995 114.664C7.06376 112.81 8.49154 110.882 9.39329 108.878C10.3451 106.824 10.8211 104.519 10.8211 101.964V101.889C10.8211 100.737 10.6958 99.2841 10.4453 97.5307C10.295 96.9295 10.0195 96.3284 9.61873 95.7272C9.21795 95.126 8.99251 94.7753 8.94242 94.6751C8.59173 94.1742 7.66493 93.3976 6.162 92.3456L4.2082 90.9178C4.2082 93.4728 4.35849 97.4305 4.65907 102.791L5.10995 114.664Z" fill="#F77B6E"/>
<path d="M30.591 145.549C29.3887 145.549 28.3116 145.274 27.3597 144.723C26.4079 144.222 25.6314 143.47 25.0302 142.468C23.8278 140.364 23.0513 137.984 22.7007 135.329C22.35 133.025 22.1746 130.269 22.1746 127.063C22.0243 121.653 21.9492 115.04 21.9492 107.225L21.874 101.438C21.8239 101.138 21.7989 100.637 21.7989 99.9354C21.6987 98.0317 21.6486 96.8794 21.6486 96.4786C22.0995 95.4266 22.6255 94.9006 23.2267 94.9006C23.8278 94.9006 24.3539 95.3514 24.8048 96.2532C25.3057 97.155 25.5562 98.1319 25.5562 99.1839V119.624C25.5562 121.628 25.7316 124.283 26.0822 127.589C26.4329 131.697 26.6083 134.352 26.6083 135.555C26.6083 139.262 28.1863 141.116 31.3425 141.116C34.9495 141.116 36.753 127.639 36.753 100.687V95.8023C36.7029 95.652 36.6779 95.4516 36.6779 95.2012C36.6779 94.6 36.8031 94.1742 37.0536 93.9237C37.3542 93.6231 37.9053 93.4728 38.7068 93.4728C39.3581 93.4728 39.8591 93.6732 40.2097 94.074C40.6105 94.4246 40.861 94.8505 40.9612 95.3514C41.0113 95.652 41.0364 96.2282 41.0364 97.0798C41.0364 97.8814 40.9612 99.1589 40.8109 100.912C40.6105 102.365 40.5103 103.618 40.5103 104.67C40.5103 105.822 40.4602 106.849 40.36 107.751L40.2097 110.907V111.508C40.2598 111.708 40.2849 111.934 40.2849 112.184C40.2849 134.428 37.0536 145.549 30.591 145.549Z" fill="#F77B6E"/>
<path d="M62.8535 145.7C61.7513 145.7 60.7494 144.497 59.8476 142.092C58.7956 139.487 58.019 136.807 57.5181 134.052L56.992 131.497C55.5392 124.333 54.6124 120.25 54.2116 119.248H53.3099C53.3099 120.701 53.2848 122.028 53.2347 123.231V127.364C53.2347 134.077 53.7107 139.312 54.6625 143.069L53.8359 145.098H51.7318L50.7549 143.971L50.83 138.936C50.83 134.428 50.6046 127.589 50.1537 118.421C49.7529 108.652 49.5526 101.814 49.5526 97.9064C49.5526 95.5017 50.3792 94.2994 52.0324 94.2994C54.7376 94.2994 56.9419 95.0008 58.6453 96.4035C60.3987 97.8062 61.2754 99.76 61.2754 102.265V107.525C61.2754 108.277 61.1501 109.153 60.8997 110.155C60.6492 111.107 60.3736 111.884 60.073 112.485L58.6453 115.19L57.4429 117.444L57.8186 119.248L58.8707 124.583C59.5721 128.441 60.2484 131.572 60.8997 133.977C61.5509 136.381 62.3525 138.561 63.3043 140.514L63.7552 141.416C64.2562 142.418 64.5067 143.22 64.5067 143.821C64.5067 144.322 64.3564 144.748 64.0558 145.098C63.7552 145.499 63.3544 145.7 62.8535 145.7ZM53.6105 115.566C54.7126 115.015 55.6394 113.512 56.3909 111.057C57.1924 108.552 57.5932 106.248 57.5932 104.144C57.5932 102.54 57.3928 101.038 56.992 99.6348C56.7416 98.8332 56.3157 98.2321 55.7146 97.8313C55.1635 97.3804 54.4621 97.155 53.6105 97.155L53.4602 97.5307L53.3099 98.207L53.4602 107.074C53.5604 109.679 53.6105 112.51 53.6105 115.566Z" fill="#F77B6E"/>
<path d="M73.4432 145.098C72.6918 145.098 71.79 144.723 70.7379 143.971C71.1387 139.813 71.4644 133.426 71.7149 124.809C71.9653 115.841 72.1407 110.456 72.2409 108.652V106.849C72.4413 101.939 72.5415 98.5326 72.5415 96.6289C72.5415 95.9276 72.817 95.3765 73.3681 94.9757C73.9692 94.5749 74.6456 94.3745 75.397 94.3745C77.1504 94.3745 79.0291 94.5248 81.033 94.8254C82.3355 95.0258 83.3625 95.3515 84.114 95.8023C84.9156 96.2532 85.3163 96.8043 85.3163 97.4555C85.3163 98.8583 84.0388 99.5596 81.4839 99.5596C80.532 99.0587 79.2295 98.8082 77.5763 98.8082H76.6745V99.7099C76.6745 101.664 76.5743 104.144 76.3739 107.149C76.1234 109.955 75.9982 112.485 75.9982 114.739V116.768H77.3508C79.8056 116.768 81.033 117.419 81.033 118.722C81.033 119.373 80.7575 119.899 80.2064 120.3C79.7054 120.701 79.0792 120.901 78.3277 120.901C77.1254 120.901 76.1485 120.776 75.397 120.525V141.792C75.397 143.996 74.7458 145.098 73.4432 145.098Z" fill="#F77B6E"/>
<path d="M93.8883 145.399C93.237 145.399 92.6359 145.173 92.0848 144.723C91.5838 144.272 91.3083 143.721 91.2582 143.069V139.613C91.2081 139.162 91.183 138.636 91.183 138.035C91.183 136.983 91.1079 135.379 90.9576 133.225L90.8073 128.416C90.8073 125.961 90.8825 122.304 91.0327 117.444C91.2331 113.086 91.3333 109.429 91.3333 106.473C91.3333 105.772 91.2582 104.72 91.1079 103.317C90.9576 101.864 90.8825 100.812 90.8825 100.161C90.8825 96.6039 91.9345 94.8254 94.0386 94.8254C95.6918 94.8254 97.5955 95.1511 99.7497 95.8023C101.954 96.4536 103.056 97.2301 103.056 98.1319C103.056 98.6328 102.831 99.1088 102.38 99.5596C101.979 99.9604 101.478 100.286 100.877 100.537C98.7728 99.7851 96.8691 99.2841 95.1658 99.0336C95.2159 99.7851 95.2409 100.862 95.2409 102.265C95.2409 104.269 95.2159 106.072 95.1658 107.675C95.0155 110.08 94.9404 111.884 94.9404 113.086L95.1658 114.288L96.3681 114.213C96.7689 114.163 97.2699 114.138 97.8711 114.138C100.276 114.138 101.478 114.839 101.478 116.242C101.478 116.793 101.253 117.269 100.802 117.67C100.351 118.021 99.7748 118.196 99.0734 118.196C98.1716 118.196 97.4703 118.146 96.9693 118.046H95.0906C95.1908 119.348 95.2409 121.252 95.2409 123.757C95.2409 126.262 95.2159 128.516 95.1658 130.52C95.0155 133.576 94.9404 135.855 94.9404 137.358C94.9404 140.164 94.9905 141.566 95.0906 141.566L97.5705 141.491C98.4221 141.441 99.4491 141.416 100.651 141.416C102.555 141.416 103.507 142.017 103.507 143.22C103.507 143.921 103.181 144.447 102.53 144.798C101.929 145.199 101.178 145.399 100.276 145.399H93.8883Z" fill="#F77B6E"/>
<path d="M121.856 145.474C120.754 145.474 119.577 145.299 118.324 144.948C117.122 144.647 116.195 144.297 115.544 143.896C112.187 141.742 110.509 135.855 110.509 126.237V120.075C110.509 118.071 110.534 116.292 110.584 114.739C110.634 113.136 110.735 111.408 110.885 109.554C111.035 107.6 111.261 106.022 111.561 104.82C111.862 103.567 112.363 102.165 113.064 100.612C113.665 99.1589 114.392 98.0317 115.243 97.2301C116.145 96.4285 117.297 95.7522 118.7 95.2012C119.953 94.6501 121.506 94.3745 123.359 94.3745C124.111 94.3745 124.687 94.5499 125.088 94.9006C125.488 95.2513 125.689 95.7021 125.689 96.2532C125.689 96.7542 125.513 97.2051 125.163 97.6058C124.862 98.0066 124.486 98.2321 124.035 98.2822H120.504C119.502 98.2822 118.625 98.9084 117.873 100.161C117.122 101.413 116.596 103.041 116.295 105.045C115.644 108.753 115.319 111.758 115.319 114.063V114.439L115.168 121.653C115.068 123.807 115.018 126.237 115.018 128.942C115.018 130.846 115.093 132.399 115.243 133.601C115.494 135.404 115.92 136.907 116.521 138.11C117.122 139.462 118.149 140.439 119.602 141.04C120.353 141.341 121.18 141.491 122.082 141.491C122.633 141.491 123.184 141.291 123.735 140.89C124.386 140.89 124.912 141.04 125.313 141.341C125.764 141.591 125.989 141.992 125.989 142.543C125.989 144.497 124.612 145.474 121.856 145.474Z" fill="#F77B6E"/>
<path d="M136.983 143.22L136.908 140.289C136.858 139.437 136.833 138.485 136.833 137.433L136.908 134.878C136.758 134.327 136.382 128.842 135.781 118.421C135.179 108.001 134.829 101.313 134.729 98.3573C131.823 98.2571 129.969 97.9565 129.168 97.4555C128.617 97.0548 128.341 96.6039 128.341 96.1029C128.341 95.7021 128.592 95.3515 129.093 95.0509C129.644 94.7002 130.195 94.5248 130.746 94.5248C132.149 94.5248 133.852 94.625 135.856 94.8254C137.759 95.0759 139.463 95.2012 140.966 95.2012H142.168C143.721 95.2012 144.498 95.8023 144.498 97.0047C144.498 97.6058 144.247 98.1068 143.746 98.5076C143.245 98.8583 142.669 99.0336 142.018 99.0336C141.567 99.0336 140.916 98.9585 140.064 98.8082L138.561 98.5076L138.411 99.2591C138.411 103.718 138.837 110.832 139.688 120.601C140.49 129.768 140.891 136.882 140.891 141.942C140.891 142.543 140.615 143.069 140.064 143.52C139.563 143.971 138.987 144.197 138.336 144.197L136.983 143.22Z" fill="#F77B6E"/>
<path d="M154.482 144.798C153.93 144.798 153.48 144.572 153.129 144.121C152.828 143.62 152.678 143.019 152.678 142.318L152.828 129.693C152.979 123.581 153.054 118.847 153.054 115.491C153.054 103.818 152.402 94.8755 151.1 88.6634C151.851 87.5112 152.803 86.9351 153.955 86.9351C155.809 86.9351 157.487 87.3609 158.99 88.2125C160.543 89.0141 161.821 90.1163 162.823 91.519C164.777 94.4246 165.753 97.681 165.753 101.288C165.753 105.045 164.952 108.402 163.349 111.358C161.746 114.313 159.416 116.618 156.36 118.271L156.51 125.861L156.661 129.844C156.711 130.695 156.736 131.923 156.736 133.526C156.886 136.882 156.961 139.613 156.961 141.717C156.961 142.669 156.761 143.42 156.36 143.971C155.959 144.522 155.333 144.798 154.482 144.798ZM156.21 114.664C158.164 112.81 159.591 110.882 160.493 108.878C161.445 106.824 161.921 104.519 161.921 101.964V101.889C161.921 100.737 161.796 99.2841 161.545 97.5307C161.395 96.9295 161.119 96.3284 160.719 95.7272C160.318 95.126 160.092 94.7753 160.042 94.6751C159.692 94.1742 158.765 93.3976 157.262 92.3456L155.308 90.9178C155.308 93.4728 155.458 97.4305 155.759 102.791L156.21 114.664Z" fill="#F77B6E"/>
<path d="M186.179 145.098C185.027 145.098 184.175 144.923 183.624 144.572C183.073 144.222 182.798 143.57 182.798 142.618C182.798 141.116 182.547 138.561 182.046 134.954L181.746 133.375L174.306 132.248C174.005 133.401 173.58 135.73 173.029 139.237C172.728 141.692 172.252 143.32 171.601 144.121C171.25 144.572 170.749 144.798 170.098 144.798C169.497 144.798 168.946 144.622 168.445 144.272C167.944 143.871 167.693 143.395 167.693 142.844L167.843 142.468L167.919 142.168C171.225 129.293 173.73 116.593 175.433 104.068C175.433 103.868 175.458 103.542 175.508 103.092C175.558 102.591 175.609 101.889 175.659 100.987C175.809 99.1338 175.959 97.6559 176.11 96.5538C176.31 95.4516 176.611 94.625 177.011 94.074H179.566C180.268 94.074 180.869 94.2493 181.37 94.6C181.871 94.9006 182.121 95.3515 182.121 95.9526C182.121 99.76 182.647 105.421 183.699 112.936C184.701 120.651 185.202 126.061 185.202 129.167C185.202 129.468 185.327 130.244 185.578 131.497C185.828 132.649 185.954 133.401 185.954 133.751C185.954 134.102 186.204 135.605 186.705 138.26C187.156 140.665 187.382 142.218 187.382 142.919V142.994C187.382 144.096 186.981 144.798 186.179 145.098ZM181.219 130.67C181.069 129.919 180.994 128.992 180.994 127.89C180.994 123.381 180.593 117.62 179.792 110.606L179.04 102.791C176.886 114.564 175.408 123.456 174.607 129.468C175.358 129.969 177.562 130.37 181.219 130.67Z" fill="#F77B6E"/>
<path d="M199.317 146C198.315 146 197.438 144.497 196.687 141.491C196.035 138.836 195.484 135.555 195.034 131.647C194.633 127.689 194.207 122.705 193.756 116.693C193.506 112.785 193.155 108.602 192.704 104.144C192.353 100.436 191.927 98.0567 191.426 97.0047C191.877 96.1029 192.604 95.652 193.606 95.652C195.209 95.652 196.01 97.3053 196.01 100.612C196.01 104.519 196.536 110.23 197.589 117.745C198.641 125.21 199.242 130.645 199.392 134.052L199.768 131.497C200.269 128.14 200.695 124.984 201.045 122.028C201.446 119.023 201.772 115.791 202.022 112.335C202.373 108.477 202.548 104.67 202.548 100.912L204.577 100.011C205.228 100.011 205.754 100.186 206.155 100.537C206.606 100.837 206.831 101.288 206.831 101.889V102.49C207.633 105.296 208.284 108.377 208.785 111.733C209.336 115.04 209.812 118.947 210.213 123.456C210.514 126.913 210.864 130.144 211.265 133.15C212.217 126.437 212.693 118.171 212.693 108.352C212.693 106.799 212.893 104.895 213.294 102.641C213.645 100.336 213.82 98.4575 213.82 97.0047C213.67 96.5538 213.595 96.128 213.595 95.7272C213.595 94.5248 214.346 93.9237 215.849 93.9237C216.45 93.9237 216.926 94.074 217.277 94.3745C217.628 94.6751 217.803 95.101 217.803 95.652V96.7792C217.803 97.5307 217.728 98.182 217.577 98.733V99.1088C216.926 101.113 216.601 103.417 216.601 106.022V111.508C216.601 114.664 216.225 119.373 215.473 125.635C214.672 131.747 214.271 136.306 214.271 139.312V140.665C214.271 141.817 214.146 142.794 213.895 143.595C213.595 144.597 212.868 145.098 211.716 145.098C210.914 145.098 210.288 144.848 209.837 144.347C209.437 143.796 209.236 143.119 209.236 142.318C209.236 138.26 208.81 133 207.959 126.537C207.508 123.632 207.032 120.701 206.531 117.745L205.329 109.855C205.128 111.308 205.028 112.735 205.028 114.138C205.028 116.943 204.828 120.651 204.427 125.26C204.026 129.869 203.4 134.352 202.548 138.711C201.596 143.57 200.519 146 199.317 146Z" fill="#F77B6E"/>
<path d="M227.4 145.474C226.498 145.324 225.722 144.998 225.07 144.497C224.469 143.996 224.118 143.345 224.018 142.543L224.845 141.266C225.145 141.266 225.621 141.366 226.273 141.566C227.024 141.717 227.6 141.792 228.001 141.792C228.903 141.792 229.704 141.391 230.406 140.59C231.157 139.788 231.708 138.736 232.059 137.433C232.71 135.029 233.036 132.875 233.036 130.971C233.036 127.664 231.984 124.183 229.88 120.525L229.053 119.098C228.101 117.444 227.3 115.967 226.648 114.664C225.997 113.362 225.446 111.959 224.995 110.456C224.394 108.502 224.093 106.548 224.093 104.594C224.093 102.39 224.594 100.086 225.596 97.681C226.097 96.5287 226.799 95.6019 227.7 94.9006C228.652 94.1491 229.704 93.7734 230.857 93.7734C231.758 93.7734 232.585 94.074 233.336 94.6751C234.138 95.2262 234.539 95.9025 234.539 96.7041C234.539 97.155 234.363 97.5056 234.013 97.7561C233.662 98.0066 233.236 98.1319 232.735 98.1319C232.184 98.1319 231.658 97.9816 231.157 97.681C230.055 97.7311 229.178 98.708 228.527 100.612C227.976 102.365 227.7 103.818 227.7 104.97C227.7 106.423 227.926 107.901 228.377 109.404C228.828 110.857 229.404 112.184 230.105 113.387L231.758 116.392L234.388 121.352C235.09 122.755 235.641 124.383 236.042 126.237C236.493 128.09 236.718 129.969 236.718 131.873C236.718 134.929 236.017 137.834 234.614 140.59C233.913 141.992 232.911 143.119 231.608 143.971C230.356 144.823 228.953 145.249 227.4 145.249V145.474Z" fill="#F77B6E"/>
</svg>
