<svg width="91" height="67" viewBox="0 0 91 67" fill="none" xmlns="http://www.w3.org/2000/svg">
<path d="M34.1136 45.5139C31.6342 43.6066 24.7299 39.9065 16.9483 40.3643" stroke="#F77B6E" stroke-width="3"/>
<path d="M31.8216 49.5725C29.0171 48.1869 21.5226 45.9082 13.9807 47.8787" stroke="#F77B6E" stroke-width="3"/>
<path d="M30.9232 53.6746C27.8458 53.1134 20.0137 52.983 13.3041 56.951" stroke="#F77B6E" stroke-width="3"/>
<path d="M57.9162 45.3237C60.3956 43.4164 67.2999 39.7164 75.0815 40.1741" stroke="#F77B6E" stroke-width="3"/>
<path d="M60.2084 49.3821C63.0129 47.9965 70.5074 45.7178 78.0493 47.6882" stroke="#F77B6E" stroke-width="3"/>
<path d="M61.1066 53.4844C64.184 52.9232 72.0161 52.7928 78.7256 56.7609" stroke="#F77B6E" stroke-width="3"/>
<path d="M27.8197 14.8453C24.6156 10.9926 16.6051 3.05844 10.1967 2.14295C6.72548 1.18932 0.309474 4.56898 2.41508 25.7166M7.90798 12.3277C10.3493 12.3658 15.9185 13.5407 18.6649 17.935" stroke="#F77B6E" stroke-width="3"/>
<path d="M63.1803 16.8192C66.3844 12.9665 74.3949 5.03231 80.8033 4.11683C84.2745 3.1632 90.6905 6.54286 88.5849 27.6905M83.092 14.3016C80.6507 14.3397 75.0815 15.5146 72.3351 19.9089" stroke="#F77B6E" stroke-width="3"/>
<path d="M40.9798 48.4893C42.5361 49.1301 44.9087 49.4429 45.9005 49.5192C48.5554 49.5192 51.1264 48.8326 52.08 48.4893C54.3687 49.6794 53.4151 52.113 52.6522 53.1811C50.3635 57.8501 46.7397 59.0936 45.2139 59.1318C41.6435 57.3008 39.5303 54.4018 38.9199 53.1811C36.0819 49.5192 39.1107 48.5274 40.9798 48.4893Z" fill="#F77B6E"/>
<path d="M45.2139 59.1317C41.6435 57.3008 39.5303 54.4018 38.9199 53.1811C36.0819 49.5192 39.1107 48.5274 40.9798 48.4893C42.5361 49.1301 44.9087 49.4429 45.9005 49.5192C48.5554 49.5192 51.1264 48.8326 52.08 48.4893C54.3687 49.6794 53.4151 52.113 52.6522 53.1811C50.3635 57.8501 46.7397 59.0936 45.2139 59.1317ZM45.2139 59.1317C41.9334 63.137 32.9693 69.1563 23.3567 61.1916M45.2139 59.1317C49.9439 63.3659 61.1891 69.4996 68.3298 60.1617" stroke="#F77B6E" stroke-width="3"/>
</svg>
